<?xml version="1.0" encoding="UTF-8"?>
<svg version="1.1" xmlns="http://www.w3.org/2000/svg" width="500" height="500">
<path d="M0 0 C165 0 330 0 500 0 C500 165 500 330 500 500 C335 500 170 500 0 500 C0 335 0 170 0 0 Z " fill="#060606" transform="translate(0,0)"/>
<path d="M0 0 C17.81182885 -1.14232632 35.54465001 -2.13405434 53.375 -2.625 C54.66929932 -2.66080547 55.96359863 -2.69661095 57.29711914 -2.73350143 C113.90535454 -4.11768974 113.90535454 -4.11768974 131.98422241 12.09765625 C140.83577969 20.56562133 148.60136912 30.9902377 154 42 C154 42.33 154 42.66 154 43 C117.37 43 80.74 43 43 43 C43 52.9 43 62.8 43 73 C38.05 73 33.1 73 28 73 C28 58.15 28 43.3 28 28 C57.37 28 86.74 28 117 28 C117 27.34 117 26.68 117 26 C116.40155273 25.75378906 115.80310547 25.50757813 115.18652344 25.25390625 C112.65091355 23.79980929 111.71660195 22.29089184 110.015625 19.9375 C105.05293342 14.89733757 99.97231537 15.0749636 93.27616882 14.95103455 C90.43342426 14.94083657 87.59257907 14.96980433 84.75 15 C82.76601575 14.99247582 80.78204199 14.9814369 78.7980957 14.96704102 C73.5961911 14.93868105 68.39552152 14.95784884 63.19366455 14.98712158 C56.94182346 15.01233206 50.6900555 14.97815058 44.43824768 14.95399475 C34.958114 14.92397955 25.48101113 14.96911723 16 15 C16 37.44 16 59.88 16 83 C25.52875 82.13375 35.0575 81.2675 44.875 80.375 C64.5346852 79.50106615 79.17821941 80.2207238 94.05882263 93.69619751 C97.52831895 96.95177683 100.7668777 100.39246384 103.9375 103.9375 C104.38579918 104.43769402 104.83409836 104.93788803 105.29598236 105.45323944 C121 123.11762474 121 123.11762474 121 126 C90.31 126 59.62 126 28 126 C28 121.05 28 116.1 28 111 C46.48 110.67 64.96 110.34 84 110 C74.95193317 99.30929698 74.95193317 99.30929698 68.90583801 97.63923645 C67.63342758 97.64589828 66.36101715 97.65256012 65.05004883 97.65942383 C64.32513339 97.64818576 63.60021795 97.63694769 62.85333538 97.62536907 C60.55132269 97.60181058 58.25835999 97.65229352 55.95703125 97.70703125 C54.51865543 97.70332056 53.0802838 97.6946595 51.64196777 97.68103027 C46.36532042 97.66515242 41.08873105 97.74434348 35.8125 97.8125 C18.0853125 97.9053125 18.0853125 97.9053125 0 98 C0 65.66 0 33.32 0 0 Z " fill="#FAFAFA" transform="translate(186,189)"/>
<path d="M0 0 C23.15761422 18.12874893 39.83793975 40.70831384 46.6875 69.5625 C46.98527344 70.6246875 47.28304687 71.686875 47.58984375 72.78125 C54.75275037 101.56491161 49.24909747 133.4476535 34.8125 159.0625 C17.49496345 187.52232751 -9.195229 209.1182556 -41.78564453 217.27832031 C-42.51638184 217.45459961 -43.24711914 217.63087891 -44 217.8125 C-45.01489502 218.05758301 -45.01489502 218.05758301 -46.05029297 218.30761719 C-55.13215777 220.36281361 -64.15482209 220.70974355 -73.4375 220.625 C-74.39398438 220.62048828 -75.35046875 220.61597656 -76.3359375 220.61132812 C-78.66148622 220.59970038 -80.98700207 220.58177208 -83.3125 220.5625 C-83.3125 217.5925 -83.3125 214.6225 -83.3125 211.5625 C-81.40791016 211.59730469 -81.40791016 211.59730469 -79.46484375 211.6328125 C-55.92089214 211.9385184 -35.98708215 207.9134821 -15.3125 196.5625 C-13.94351563 195.83933594 -13.94351563 195.83933594 -12.546875 195.1015625 C-5.02766541 190.90535844 1.29142234 185.26847455 7.6875 179.5625 C8.3578125 178.97726562 9.028125 178.39203125 9.71875 177.7890625 C23.74172161 164.75828228 32.74771909 145.79852454 37.6875 127.5625 C37.94789063 126.62954102 38.20828125 125.69658203 38.4765625 124.73535156 C40.64684451 116.30879451 41.15830523 108.36701096 41.0625 99.6875 C41.05817963 99.02885956 41.05385925 98.37021912 41.04940796 97.69161987 C40.9745085 87.9509969 40.5001636 78.93424957 37.6875 69.5625 C37.35878906 68.36753906 37.03007812 67.17257813 36.69140625 65.94140625 C32.17388126 50.91946329 24.57450963 37.68023074 14.6875 25.5625 C13.93919922 24.58603516 13.93919922 24.58603516 13.17578125 23.58984375 C8.78557229 18.06748922 3.24623577 13.85197836 -2.3125 9.5625 C-3.09496094 8.95277344 -3.87742187 8.34304687 -4.68359375 7.71484375 C-29.49721004 -10.65476426 -59.61588594 -16.7791567 -90.0078125 -13.11230469 C-94.59946446 -12.31265682 -98.91342299 -10.98711693 -103.3125 -9.4375 C-104.45589844 -9.086875 -105.59929687 -8.73625 -106.77734375 -8.375 C-120.55720136 -3.91088415 -133.50042597 2.8914926 -144.3125 12.5625 C-145.14007813 13.25988281 -145.96765625 13.95726562 -146.8203125 14.67578125 C-165.64814061 30.88383511 -176.8897895 52.62677249 -182.3125 76.5625 C-182.4882959 77.3160376 -182.6640918 78.0695752 -182.84521484 78.84594727 C-187.91165856 108.29961456 -180.5000177 138.82178259 -164.3125 163.5625 C-160.66476405 168.67992266 -156.72454757 173.31873262 -152.078125 177.55078125 C-143.63340196 185.30686823 -143.63340196 185.30686823 -142.55078125 189.54296875 C-142.56120186 192.00570587 -142.74119013 194.1714624 -143.3125 196.5625 C-167.38551687 181.08950673 -183.40408242 154.19617031 -190.26171875 126.765625 C-192.18163411 117.11206974 -192.59804543 107.58152257 -192.625 97.75 C-192.63039795 96.54698242 -192.6357959 95.34396484 -192.64135742 94.10449219 C-192.55384424 83.00325474 -191.34113929 72.26947241 -187.6875 61.75 C-187.2994519 60.61751831 -187.2994519 60.61751831 -186.90356445 59.4621582 C-175.57578961 27.53964169 -152.24604105 2.42557633 -121.875 -12.3125 C-113.54381091 -16.22125958 -105.33231946 -18.6520383 -96.3125 -20.4375 C-95.58240723 -20.61192627 -94.85231445 -20.78635254 -94.10009766 -20.96606445 C-61.91504103 -28.30932033 -26.33075867 -19.26232345 0 0 Z " fill="#F7F7F7" transform="translate(321.3125,149.4375)"/>
<path d="M0 0 C4.95 0 9.9 0 15 0 C15.33 12.87 15.66 25.74 16 39 C21.445 40.98 21.445 40.98 27 43 C27 37.72 27 32.44 27 27 C31.95 27 36.9 27 42 27 C42.495 37.395 42.495 37.395 43 48 C45.64 48.66 48.28 49.32 51 50 C51 50.99 51 51.98 51 53 C48.03 52.67 45.06 52.34 42 52 C42 70.48 42 88.96 42 108 C39.69 106.02 37.38 104.04 35 102 C33.67093695 100.88533068 32.34064804 99.77211863 31.00830078 98.66137695 C-0.78189858 71.81157745 -0.78189858 71.81157745 -2.34375 57.08203125 C-2.83701467 49.75473572 -2.12486064 42.45005611 -0.89599609 35.22509766 C-0.6743263 31.77314664 -0.6743263 31.77314664 -3.46728516 29.06787109 C-4.30308105 28.38547363 -5.13887695 27.70307617 -6 27 C-4.0625 26.4375 -4.0625 26.4375 -2 26 C-1.67 26.33 -1.34 26.66 -1 27 C-0.67 18.09 -0.34 9.18 0 0 Z " fill="#FEFEFE" transform="translate(187,300)"/>
<path d="M0 0 C4.58960475 0.69539466 7.45087033 2.050373 12 4 C12 12.25 12 20.5 12 29 C9.69 27.02 7.38 25.04 5 23 C4.03707031 22.24332031 3.07414063 21.48664063 2.08203125 20.70703125 C-0.94203969 16.77517166 -0.55931065 13.49840921 -0.3125 8.6875 C-0.28994141 7.85154297 -0.26738281 7.01558594 -0.24414062 6.15429688 C-0.1855061 4.10208851 -0.09583215 2.05080798 0 0 Z " fill="#040404" transform="translate(202,343)"/>
<path d="M0 0 C0.66 0 1.32 0 2 0 C3.06129426 2.24250878 4.09881233 4.49149089 5.125 6.75 C5.42792969 7.38421875 5.73085938 8.0184375 6.04296875 8.671875 C8.18359806 13.45095438 8.18359806 13.45095438 7.1796875 16.453125 C6.79039062 16.96359375 6.40109375 17.4740625 6 18 C1.25 16.125 1.25 16.125 -1 15 C-0.649375 15.5775 -0.29875 16.155 0.0625 16.75 C1.14917407 19.35801776 0.93065133 20.39417629 0 23 C-4.62589639 23 -5.97485851 22.016761 -9.75 19.5 C-10.73484375 18.8503125 -11.7196875 18.200625 -12.734375 17.53125 C-13.48203125 17.0259375 -14.2296875 16.520625 -15 16 C-14.67 15.01 -14.34 14.02 -14 13 C-10.40608886 14.33488128 -7.24509304 15.96022723 -4 18 C-4.77030122 14.51190809 -4.77030122 14.51190809 -6 11 C-6.99 10.67 -7.98 10.34 -9 10 C-8.01 9.01 -7.02 8.02 -6 7 C-3.03 8.65 -0.06 10.3 3 12 C1.9790625 10.14375 1.9790625 10.14375 0.9375 8.25 C-1.09326923 4.55769231 -1.09326923 4.55769231 -0.62109375 1.734375 C-0.41613281 1.16203125 -0.21117187 0.5896875 0 0 Z " fill="#EBEBEB" transform="translate(356,345)"/>
<path d="M0 0 C1.65 0.33 3.3 0.66 5 1 C5.33 1.99 5.66 2.98 6 4 C6.804375 3.979375 7.60875 3.95875 8.4375 3.9375 C11 4 11 4 12 5 C12.61317388 10.27329537 11.16733542 12.84287226 8 17 C4.89257577 15.53181332 2.09528261 13.79975 -0.75 11.875 C-1.54921875 11.33617187 -2.3484375 10.79734375 -3.171875 10.2421875 C-3.77515625 9.83226562 -4.3784375 9.42234375 -5 9 C-4.21616433 5.13857796 -2.57189568 2.98671756 0 0 Z " fill="#DEDEDE" transform="translate(373,325)"/>
<path d="M0 0 C1.875 1.125 1.875 1.125 3 3 C2.6875 6.1875 2.6875 6.1875 2 9 C4.475 10.98 4.475 10.98 7 13 C5.02 13.99 5.02 13.99 3 15 C1.02 13.68 -0.96 12.36 -3 11 C-2.67 12.98 -2.34 14.96 -2 17 C-3.32 17.33 -4.64 17.66 -6 18 C-7.65 13.05 -9.3 8.1 -11 3 C-3.7755102 -0.6122449 -3.7755102 -0.6122449 0 0 Z " fill="#E9E9E9" transform="translate(302,384)"/>
<path d="M0 0 C0.33 0 0.66 0 1 0 C1.33 12.87 1.66 25.74 2 39 C5.63 40.32 9.26 41.64 13 43 C13 37.72 13 32.44 13 27 C13.33 27 13.66 27 14 27 C14 41.85 14 56.7 14 72 C13.67 72 13.34 72 13 72 C13 63.75 13 55.5 13 47 C11.35 46.67 9.7 46.34 8 46 C4.535 44.515 4.535 44.515 1 43 C1 48.61 1 54.22 1 60 C0.67 60 0.34 60 0 60 C0 40.2 0 20.4 0 0 Z " fill="#9C9C9C" transform="translate(201,300)"/>
<path d="M0 0 C3.00010578 1.16011285 4.68037216 2.98822729 6.921875 5.27734375 C7.72109375 6.08042969 8.5203125 6.88351562 9.34375 7.7109375 C11.171875 9.83984375 11.171875 9.83984375 11.171875 11.83984375 C7.92557653 12.92194324 7.29751002 12.6212525 4.171875 11.83984375 C3.181875 12.16984375 2.191875 12.49984375 1.171875 12.83984375 C1.501875 14.15984375 1.831875 15.47984375 2.171875 16.83984375 C0.851875 17.16984375 -0.468125 17.49984375 -1.828125 17.83984375 C-2.16661152 15.94492369 -2.49869411 14.04885909 -2.828125 12.15234375 C-3.01375 11.09660156 -3.199375 10.04085938 -3.390625 8.953125 C-3.77880574 6.19080313 -3.91072476 3.62242332 -3.828125 0.83984375 C-1.828125 -0.16015625 -1.828125 -0.16015625 0 0 Z " fill="#D9D9D9" transform="translate(320.828125,374.16015625)"/>
<path d="M0 0 C0.99 0.33 1.98 0.66 3 1 C2.67 1.598125 2.34 2.19625 2 2.8125 C0.79212012 5.05386471 0.79212012 5.05386471 1 8 C2.32 7.01 3.64 6.02 5 5 C5.99 6.485 5.99 6.485 7 8 C6.01 9.32 5.02 10.64 4 12 C4.99 12.33 5.98 12.66 7 13 C7.66 11.68 8.32 10.36 9 9 C9.99 9 10.98 9 12 9 C11.52797514 13.24822374 9.03344482 15.19989709 6 18 C2.76138697 16.55575365 0.38030837 14.74227753 -2.25 12.375 C-2.95640625 11.74335938 -3.6628125 11.11171875 -4.390625 10.4609375 C-4.92171875 9.97882813 -5.4528125 9.49671875 -6 9 C-4.38617243 5.59787701 -2.41396234 2.89675481 0 0 Z " fill="#E7E7E7" transform="translate(365,335)"/>
<path d="M0 0 C0.598125 0.20625 1.19625 0.4125 1.8125 0.625 C1.8125 1.615 1.8125 2.605 1.8125 3.625 C1.173125 3.74875 0.53375 3.8725 -0.125 4 C-1.1459375 4.309375 -1.1459375 4.309375 -2.1875 4.625 C-2.5175 5.285 -2.8475 5.945 -3.1875 6.625 C-1.3003125 6.2846875 -1.3003125 6.2846875 0.625 5.9375 C4.51330558 5.46180304 4.51330558 5.46180304 6.875 6.75 C7.8125 8.625 7.8125 8.625 7.6875 11.125 C6.74938695 13.805323 6.07818888 14.94671194 3.8125 16.625 C1.625 17.3125 1.625 17.3125 -0.1875 17.625 C-0.8475 16.305 -1.5075 14.985 -2.1875 13.625 C-1.383125 13.50125 -0.57875 13.3775 0.25 13.25 C1.095625 13.04375 1.94125 12.8375 2.8125 12.625 C3.1425 11.965 3.4725 11.305 3.8125 10.625 C1.894375 10.686875 1.894375 10.686875 -0.0625 10.75 C-2.2421875 10.8203125 -2.2421875 10.8203125 -4.1875 10.625 C-4.8475 9.965 -5.5075 9.305 -6.1875 8.625 C-6 5.125 -6 5.125 -5.1875 1.625 C-2.1875 -0.375 -2.1875 -0.375 0 0 Z " fill="#E2E2E2" transform="translate(335.1875,365.375)"/>
<path d="M0 0 C0 0.99 0 1.98 0 3 C-1.98 3.33 -3.96 3.66 -6 4 C-5.67 4.99 -5.34 5.98 -5 7 C-3.35 7 -1.7 7 0 7 C0 7.99 0 8.98 0 10 C-0.99 10.33 -1.98 10.66 -3 11 C-3 12.98 -3 14.96 -3 17 C-4.32 17.33 -5.64 17.66 -7 18 C-7.50588147 16.08487728 -8.00448391 14.16783078 -8.5 12.25 C-8.7784375 11.18265625 -9.056875 10.1153125 -9.34375 9.015625 C-10 6 -10 6 -10 2 C-6.38026598 0.68373308 -3.90432869 0 0 0 Z " fill="#ECECEC" transform="translate(290,388)"/>
<path d="M0 0 C1.98 4.62 3.96 9.24 6 14 C4.68 14.33 3.36 14.66 2 15 C0.99515796 13.04414675 -0.00373805 11.08523763 -1 9.125 C-1.556875 8.03445313 -2.11375 6.94390625 -2.6875 5.8203125 C-4 3 -4 3 -4 1 C-2 0 -2 0 0 0 Z " fill="#EDEDED" transform="translate(310,380)"/>
<path d="M0 0 C0.33 1.32 0.66 2.64 1 4 C-2.96 4.99 -6.92 5.98 -11 7 C-11.33 5.68 -11.66 4.36 -12 3 C-10.37604003 2.49663233 -8.75079459 1.99741024 -7.125 1.5 C-6.22007812 1.2215625 -5.31515625 0.943125 -4.3828125 0.65625 C-2 0 -2 0 0 0 Z " fill="#D6D6D6" transform="translate(286,344)"/>
<path d="M0 0 C1.79206547 0.14084796 3.58364917 0.28783701 5.375 0.4375 C6.87160156 0.55931641 6.87160156 0.55931641 8.3984375 0.68359375 C11 1 11 1 13 2 C12.67 2.99 12.34 3.98 12 5 C8.04 4.67 4.08 4.34 0 4 C0 2.68 0 1.36 0 0 Z " fill="#E2E2E2" transform="translate(262,147)"/>
<path d="M0 0 C1.32 0 2.64 0 4 0 C4.02712066 1.43739513 4.04645067 2.87493863 4.0625 4.3125 C4.07410156 5.11300781 4.08570313 5.91351563 4.09765625 6.73828125 C4 9 4 9 3 12 C2.01 12 1.02 12 0 12 C0 8.04 0 4.08 0 0 Z " fill="#DFDFDF" transform="translate(350,250)"/>
<path d="M0 0 C1.32 0 2.64 0 4 0 C3.01 3.96 2.02 7.92 1 12 C-0.32 12 -1.64 12 -3 12 C-2.68950274 10.56206608 -2.3765224 9.1246682 -2.0625 7.6875 C-1.88847656 6.88699219 -1.71445313 6.08648437 -1.53515625 5.26171875 C-1 3 -1 3 0 0 Z " fill="#DDDDDD" transform="translate(152,214)"/>
<path d="M0 0 C0.33 0.99 0.66 1.98 1 3 C-0.42859407 4.03325986 -1.86822383 5.05127634 -3.3125 6.0625 C-4.51326172 6.91521484 -4.51326172 6.91521484 -5.73828125 7.78515625 C-6.48464844 8.18605469 -7.23101562 8.58695313 -8 9 C-8.99 8.67 -9.98 8.34 -11 8 C-9.83630874 4.50892621 -9.11026462 4.14777237 -6.0625 2.3125 C-5.35222656 1.87550781 -4.64195312 1.43851563 -3.91015625 0.98828125 C-2 0 -2 0 0 0 Z " fill="#E5E5E5" transform="translate(202,158)"/>
<path d="M0 0 C0.99 0 1.98 0 3 0 C3.69937202 1.4317616 4.38412718 2.87067032 5.0625 4.3125 C5.63677734 5.51326172 5.63677734 5.51326172 6.22265625 6.73828125 C7 9 7 9 6 12 C3 11 3 11 1.83203125 8.71484375 C1.49558594 7.79832031 1.15914062 6.88179688 0.8125 5.9375 C0.46832031 5.01839844 0.12414062 4.09929687 -0.23046875 3.15234375 C-0.48441406 2.44207031 -0.73835937 1.73179687 -1 1 C-0.67 0.67 -0.34 0.34 0 0 Z " fill="#E5E5E5" transform="translate(154,286)"/>
<path d="M0 0 C0.99 0 1.98 0 3 0 C3 3.96 3 7.92 3 12 C1.68 12 0.36 12 -1 12 C-1.14285714 3.42857143 -1.14285714 3.42857143 0 0 Z " fill="#DCDCDC" transform="translate(147,238)"/>
<path d="M0 0 C0.99 0.33 1.98 0.66 3 1 C1.55049545 4.7910119 -0.15172566 8.3874638 -2 12 C-3.32 11.67 -4.64 11.34 -6 11 C-5.18993474 9.35296694 -4.3768779 7.70740494 -3.5625 6.0625 C-3.11003906 5.14597656 -2.65757812 4.22945312 -2.19140625 3.28515625 C-1 1 -1 1 0 0 Z " fill="#E6E6E6" transform="translate(164,191)"/>
<path d="M0 0 C3.96 0 7.92 0 12 0 C12 0.99 12 1.98 12 3 C7.9472484 3.98248524 4.16138263 4.08159574 0 4 C0 2.68 0 1.36 0 0 Z " fill="#DDDDDD" transform="translate(250,350)"/>
<path d="M0 0 C0.33 0.99 0.66 1.98 1 3 C-3.95 5.97 -3.95 5.97 -9 9 C-9.66 8.01 -10.32 7.02 -11 6 C-9.54550599 4.9944239 -8.08627557 3.99569565 -6.625 3 C-5.40683594 2.1646875 -5.40683594 2.1646875 -4.1640625 1.3125 C-2 0 -2 0 0 0 Z " fill="#E8E8E8" transform="translate(308,333)"/>
<path d="M0 0 C0.99 0 1.98 0 3 0 C4.13764351 4.26616316 5 7.56486311 5 12 C3.68 11.67 2.36 11.34 1 11 C0.67 7.37 0.34 3.74 0 0 Z " fill="#E2E2E2" transform="translate(348,225)"/>
<path d="M0 0 C3 1 3 1 4.16796875 3.28515625 C4.50441406 4.20167969 4.84085937 5.11820313 5.1875 6.0625 C5.53167969 6.98160156 5.87585938 7.90070313 6.23046875 8.84765625 C6.48441406 9.55792969 6.73835938 10.26820313 7 11 C5.68 11 4.36 11 3 11 C2.30034557 9.73581754 1.61565237 8.46334598 0.9375 7.1875 C0.55464844 6.47980469 0.17179687 5.77210938 -0.22265625 5.04296875 C-1 3 -1 3 0 0 Z " fill="#E8E8E8" transform="translate(340,202)"/>
<path d="M0 0 C0.99 0.33 1.98 0.66 3 1 C1.44499019 4.81684226 -1.03595495 7.19195732 -4 10 C-4.99 9.67 -5.98 9.34 -7 9 C-5.44499019 5.18315774 -2.96404505 2.80804268 0 0 Z " fill="#E7E7E7" transform="translate(324,317)"/>
<path d="M0 0 C0.99 0.66 1.98 1.32 3 2 C0.03 6.95 0.03 6.95 -3 12 C-3.99 11.67 -4.98 11.34 -6 11 C-4.54955729 6.89041233 -2.48889248 3.56741255 0 0 Z " fill="#E9E9E9" transform="translate(339,297)"/>
<path d="M0 0 C0.99 0.33 1.98 0.66 3 1 C1.44499019 4.81684226 -1.03595495 7.19195732 -4 10 C-4.99 9.67 -5.98 9.34 -7 9 C-5.44499019 5.18315774 -2.96404505 2.80804268 0 0 Z " fill="#EFEFEF" transform="translate(180,173)"/>
<path d="M0 0 C3.99500618 1.3697164 6.80009492 3.25722422 10 6 C9.67 7.32 9.34 8.64 9 10 C8.44570313 9.57847656 7.89140625 9.15695313 7.3203125 8.72265625 C6.59585937 8.17480469 5.87140625 7.62695312 5.125 7.0625 C4.40570313 6.51722656 3.68640625 5.97195312 2.9453125 5.41015625 C1.05642921 3.96035376 1.05642921 3.96035376 -1 3 C-0.67 2.01 -0.34 1.02 0 0 Z " fill="#E5E5E5" transform="translate(308,165)"/>
<path d="M0 0 C4.75481646 0.57634139 7.97048212 2.55068521 12 5 C11.67 5.99 11.34 6.98 11 8 C7.2089881 6.55049545 3.6125362 4.84827434 0 3 C0 2.01 0 1.02 0 0 Z " fill="#E7E7E7" transform="translate(286,153)"/>
<path d="M0 0 C2.72574271 0.37330824 3.80822085 0.79194601 5.703125 2.84765625 C6.21359375 3.57855469 6.7240625 4.30945313 7.25 5.0625 C8.03117188 6.16271484 8.03117188 6.16271484 8.828125 7.28515625 C9.21484375 7.85105469 9.6015625 8.41695313 10 9 C9.01 9.66 8.02 10.32 7 11 C5.82750647 9.54634731 4.66216184 8.08692581 3.5 6.625 C2.52546875 5.40683594 2.52546875 5.40683594 1.53125 4.1640625 C0 2 0 2 0 0 Z " fill="#E7E7E7" transform="translate(165,308)"/>
<path d="M0 0 C0.99 0 1.98 0 3 0 C2.14285714 8.57142857 2.14285714 8.57142857 0 12 C-0.99 12 -1.98 12 -3 12 C-2.68950274 10.56206608 -2.3765224 9.1246682 -2.0625 7.6875 C-1.88847656 6.88699219 -1.71445312 6.08648437 -1.53515625 5.26171875 C-1 3 -1 3 0 0 Z " fill="#E6E6E6" transform="translate(347,274)"/>
<path d="M0 0 C3.28788824 3.11016455 5.83735988 6.01618925 8 10 C6.68 10 5.36 10 4 10 C2.296875 8.25 2.296875 8.25 0.75 6 C0.22921875 5.2575 -0.2915625 4.515 -0.828125 3.75 C-1.21484375 3.1725 -1.6015625 2.595 -2 2 C-1.34 1.34 -0.68 0.68 0 0 Z " fill="#EFEFEF" transform="translate(327,181)"/>
<path d="M0 0 C0.33 1.32 0.66 2.64 1 4 C-4.445 5.485 -4.445 5.485 -10 7 C-10.33 6.01 -10.66 5.02 -11 4 C-3.57142857 0.71428571 -3.57142857 0.71428571 0 0 Z " fill="#E8E8E8" transform="translate(224,149)"/>
<path d="M0 0 C1.65087847 0.59024148 3.29562407 1.19766006 4.9375 1.8125 C6.31228516 2.31716797 6.31228516 2.31716797 7.71484375 2.83203125 C10 4 10 4 11 7 C6.22423661 6.5317879 2.95523655 5.75668002 -1 3 C-0.67 2.01 -0.34 1.02 0 0 Z " fill="#EFEFEF" transform="translate(203,339)"/>
<path d="M0 0 C1.32 0.33 2.64 0.66 4 1 C4.33 4.3 4.66 7.6 5 11 C4.01 11.33 3.02 11.66 2 12 C1.34 8.04 0.68 4.08 0 0 Z " fill="#F2F2F2" transform="translate(147,263)"/>
<path d="M0 0 C3.96 0 7.92 0 12 0 C12 0.99 12 1.98 12 3 C8.04 3 4.08 3 0 3 C0 2.01 0 1.02 0 0 Z " fill="#EAEAEA" transform="translate(238,147)"/>
<path d="M0 0 C2.475 0.495 2.475 0.495 5 1 C4.34 2.32 3.68 3.64 3 5 C2.34 5 1.68 5 1 5 C0.67 3.35 0.34 1.7 0 0 Z " fill="#151515" transform="translate(296,388)"/>
<path d="M0 0 C0.99 0.33 1.98 0.66 3 1 C2.67 2.32 2.34 3.64 2 5 C0.68 4.67 -0.64 4.34 -2 4 C-1.34 2.68 -0.68 1.36 0 0 Z " fill="#191919" transform="translate(379,332)"/>
</svg>
